<svg width="56" height="57" viewBox="0 0 56 57" fill="none" xmlns="http://www.w3.org/2000/svg">
<path d="M49 39.5155V17.9375C49 17.627 48.9174 17.3221 48.7606 17.054C48.6039 16.786 48.3786 16.5645 48.108 16.4122L28.858 5.58412C28.596 5.43678 28.3005 5.35937 28 5.35938C27.6995 5.35938 27.404 5.43678 27.142 5.58412L7.89204 16.4122C7.62141 16.5645 7.39615 16.786 7.23938 17.054C7.08262 17.3221 7 17.627 7 17.9375V39.5155C7 39.826 7.08262 40.131 7.23938 40.399C7.39615 40.6671 7.62141 40.8886 7.89204 41.0408L27.142 51.8689C27.404 52.0163 27.6995 52.0937 28 52.0937C28.3005 52.0937 28.596 52.0163 28.858 51.8689L48.108 41.0408C48.3786 40.8886 48.6039 40.6671 48.7606 40.399C48.9174 40.131 49 39.826 49 39.5155Z" stroke="#EF4343" stroke-width="3.11111" stroke-linecap="round" stroke-linejoin="round"/>
<path d="M38.7236 34.0883V22.7133L17.5 11.0078" stroke="#EF4343" stroke-width="3.11111" stroke-linecap="round" stroke-linejoin="round"/>
<path d="M48.7587 17.051L28.2075 28.7264L7.24231 17.0488" stroke="#EF4343" stroke-width="3.11111" stroke-linecap="round" stroke-linejoin="round"/>
<path d="M28.2074 28.7266L28.0021 52.0937" stroke="#EF4343" stroke-width="3.11111" stroke-linecap="round" stroke-linejoin="round"/>
</svg>
