<svg width="26" height="27" viewBox="0 0 26 27" fill="none" xmlns="http://www.w3.org/2000/svg">
<path d="M13.9151 3.54332C13.5027 2.83257 12.4763 2.83256 12.0638 3.54332L9.15933 8.54886C8.9556 8.89997 8.60346 9.13957 8.20208 9.2002L2.75883 10.0223C1.8446 10.1604 1.52391 11.3147 2.2359 11.9046L6.29089 15.2641C6.66625 15.5751 6.84274 16.0656 6.75156 16.5445L5.69084 22.1149C5.52316 22.9955 6.44756 23.6796 7.24072 23.262L12.3662 20.5632C12.7563 20.3578 13.2226 20.3578 13.6127 20.5632L18.7382 23.262C19.5314 23.6796 20.4558 22.9955 20.2881 22.1149L19.2274 16.5445C19.1362 16.0656 19.3127 15.5751 19.6881 15.2641L23.7431 11.9046C24.455 11.3147 24.1344 10.1604 23.2201 10.0223L17.7769 9.2002C17.3755 9.13957 17.0234 8.89997 16.8196 8.54886L13.9151 3.54332Z" fill="#FF8800"/>
</svg>
