<svg width="56" height="57" viewBox="0 0 56 57" fill="none" xmlns="http://www.w3.org/2000/svg">
<path d="M35 45.3575C36.9435 45.9232 38.9988 46.2266 41.1249 46.2266C44.5753 46.2266 47.8392 45.4277 50.7416 44.0048C50.7471 43.8711 50.7499 43.7366 50.7499 43.6016C50.7499 38.2858 46.4406 33.9766 41.1249 33.9766C37.8162 33.9766 34.8974 35.6461 33.165 38.1887M35 45.3575V45.3516C35 42.7548 34.3346 40.3135 33.165 38.1887M35 45.3575C35 45.4407 34.9992 45.5238 34.9978 45.6066C30.6538 48.2221 25.5651 49.7266 20.125 49.7266C14.6849 49.7266 9.59616 48.2221 5.25215 45.6066C5.25072 45.5218 5.25 45.4368 5.25 45.3516C5.25 37.1363 11.9098 30.4766 20.125 30.4766C25.7435 30.4766 30.6344 33.5915 33.165 38.1887M28 15.6016C28 19.9508 24.4742 23.4766 20.125 23.4766C15.7758 23.4766 12.25 19.9508 12.25 15.6016C12.25 11.2523 15.7758 7.72656 20.125 7.72656C24.4742 7.72656 28 11.2523 28 15.6016ZM47.25 20.8516C47.25 24.2343 44.5077 26.9766 41.125 26.9766C37.7423 26.9766 35 24.2343 35 20.8516C35 17.4688 37.7423 14.7266 41.125 14.7266C44.5077 14.7266 47.25 17.4688 47.25 20.8516Z" stroke="#4B8D0C" stroke-width="3.5" stroke-linecap="round" stroke-linejoin="round"/>
</svg>
