<svg width="56" height="57" viewBox="0 0 56 57" fill="none" xmlns="http://www.w3.org/2000/svg">
<path d="M9.94006 26.4398V38.0364C9.94006 42.2831 9.94006 42.2831 13.9534 44.9898L24.9901 51.3598C26.6467 52.3164 29.3534 52.3164 31.0101 51.3598L42.0467 44.9898C46.0601 42.2831 46.0601 42.2831 46.0601 38.0364V26.4398C46.0601 22.1931 46.0601 22.1931 42.0467 19.4864L31.0101 13.1164C29.3534 12.1598 26.6467 12.1598 24.9901 13.1164L13.9534 19.4864C9.94006 22.1931 9.94006 22.1931 9.94006 26.4398Z" stroke="#1018BC" stroke-width="3.5" stroke-linecap="round" stroke-linejoin="round"/>
<path d="M40.8333 18.53V12.3933C40.8333 7.72664 38.5 5.39331 33.8333 5.39331H22.1666C17.5 5.39331 15.1666 7.72664 15.1666 12.3933V18.3666" stroke="#1018BC" stroke-width="3.5" stroke-linecap="round" stroke-linejoin="round"/>
<path d="M29.47 26.3698L30.8 28.4465C31.01 28.7731 31.4767 29.0998 31.8267 29.1931L34.2067 29.7998C35.6767 30.1731 36.0734 31.4331 35.1167 32.5998L33.5534 34.4898C33.32 34.7931 33.1334 35.3298 33.1567 35.7031L33.2967 38.1531C33.39 39.6698 32.3167 40.4398 30.9167 39.8798L28.63 38.9698C28.28 38.8298 27.6967 38.8298 27.3467 38.9698L25.06 39.8798C23.66 40.4398 22.5867 39.6465 22.68 38.1531L22.82 35.7031C22.8433 35.3298 22.6567 34.7698 22.4233 34.4898L20.86 32.5998C19.9033 31.4331 20.3 30.1731 21.77 29.7998L24.15 29.1931C24.5234 29.0998 24.99 28.7498 25.1767 28.4465L26.5067 26.3698C27.3467 25.1098 28.6534 25.1098 29.47 26.3698Z" stroke="#1018BC" stroke-width="3.5" stroke-linecap="round" stroke-linejoin="round"/>
</svg>
