<svg width="372" height="403" viewBox="0 0 372 403" fill="none" xmlns="http://www.w3.org/2000/svg">
<path opacity="0.08" d="M185.338 379.344C211.521 371.832 230.02 363.574 243.811 353.559C258.001 343.255 266.183 331.83 272.753 319.945C275.455 315.059 277.862 310.198 280.308 305.259C289.267 287.169 298.753 268.016 325.154 242.625C347.167 221.453 355.511 195.473 353.976 169.224C352.476 143.589 341.666 118.351 326.709 96.5614C311.684 74.6728 291.767 55.2125 270.453 41.1106C249.379 27.1671 225.45 17.5 202.5 17.5C173.653 17.5 156.075 37.5132 143.673 55.9526C138.857 63.1145 134.139 71.1112 129.609 78.7889C128.215 81.152 126.839 83.485 125.483 85.754C119.505 95.7583 113.557 105.179 106.843 113.557C97.2848 125.486 83.6505 134.087 68.1899 143.84C64.7953 145.982 61.3128 148.179 57.766 150.478C48.696 156.36 38.9236 163.196 31.4272 171.527C23.5959 180.23 17.5 191.405 17.5 205.5C17.5 244.899 29.411 295.11 55.7111 332.376C69.0012 351.208 86.4535 367.399 108.58 376.618C130.945 385.936 156.727 387.553 185.338 379.344Z" fill="#06A290" stroke="#06A290" stroke-width="35"/>
</svg>
