<svg width="67" height="67" viewBox="0 0 67 67" fill="none" xmlns="http://www.w3.org/2000/svg">
<path d="M28.1724 37.5632H10.4343C9.88079 37.5632 9.34999 37.3434 8.95863 36.952C8.56728 36.5607 8.34741 36.0299 8.34741 35.4764V18.7817C8.34741 18.2282 8.56728 17.6974 8.95863 17.306C9.34999 16.9147 9.88079 16.6948 10.4343 16.6948H26.0856C26.639 16.6948 27.1698 16.9147 27.5612 17.306C27.9525 17.6974 28.1724 18.2282 28.1724 18.7817V41.7369C28.1724 44.5043 27.0731 47.1582 25.1163 49.115C23.1595 51.0718 20.5055 52.1711 17.7382 52.1711" stroke="#06A290" stroke-width="4.30832" stroke-linecap="round" stroke-linejoin="round"/>
<path d="M58.4316 37.5632H40.6934C40.1399 37.5632 39.6091 37.3434 39.2178 36.952C38.8264 36.5607 38.6066 36.0299 38.6066 35.4764V18.7817C38.6066 18.2282 38.8264 17.6974 39.2178 17.306C39.6091 16.9147 40.1399 16.6948 40.6934 16.6948H56.3447C56.8982 16.6948 57.429 16.9147 57.8203 17.306C58.2117 17.6974 58.4316 18.2282 58.4316 18.7817V41.7369C58.4316 44.5043 57.3323 47.1582 55.3755 49.115C53.4187 51.0718 50.7647 52.1711 47.9974 52.1711" stroke="#06A290" stroke-width="4.30832" stroke-linecap="round" stroke-linejoin="round"/>
</svg>
