<svg width="56" height="57" viewBox="0 0 56 57" fill="none" xmlns="http://www.w3.org/2000/svg">
<path d="M35.4246 36.1512C31.3241 40.2517 24.6759 40.2517 20.5754 36.1512M49 28.7266C49 40.3245 39.598 49.7266 28 49.7266C16.402 49.7266 7 40.3245 7 28.7266C7 17.1286 16.402 7.72656 28 7.72656C39.598 7.72656 49 17.1286 49 28.7266ZM22.75 23.4766C22.75 24.4431 22.3582 25.2266 21.875 25.2266C21.3918 25.2266 21 24.4431 21 23.4766C21 22.5101 21.3918 21.7266 21.875 21.7266C22.3582 21.7266 22.75 22.5101 22.75 23.4766ZM21.875 23.4766H21.8925V23.5116H21.875V23.4766ZM35 23.4766C35 24.4431 34.6082 25.2266 34.125 25.2266C33.6418 25.2266 33.25 24.4431 33.25 23.4766C33.25 22.5101 33.6418 21.7266 34.125 21.7266C34.6082 21.7266 35 22.5101 35 23.4766ZM34.125 23.4766H34.1425V23.5116H34.125V23.4766Z" stroke="#BC7F10" stroke-width="3.5" stroke-linecap="round" stroke-linejoin="round"/>
</svg>
